<?xml version="1.0" encoding="UTF-8"?><svg id="Layer_1" xmlns="http://www.w3.org/2000/svg" viewBox="0 0 99.96 61.76"><defs><style>.cls-1{fill:#fe5f00;}.cls-1,.cls-2,.cls-3{stroke-width:0px;}.cls-2{fill:#ea001b;}.cls-3{fill:#f69d1b;}</style></defs><path class="cls-2" d="m49.99,55.14c-5.26,4.14-11.89,6.62-19.11,6.62C13.83,61.76,0,47.93,0,30.88S13.83,0,30.88,0c7.22,0,13.85,2.47,19.11,6.61-7.18,5.65-11.79,14.42-11.79,24.27s4.61,18.61,11.79,24.26Z"/><path class="cls-1" d="m61.76,30.88c0,9.84-4.6,18.61-11.77,24.26-7.18-5.65-11.79-14.42-11.79-24.26s4.61-18.62,11.79-24.27c7.17,5.66,11.77,14.43,11.77,24.27Z"/><path class="cls-3" d="m99.96,30.88c0,17.05-13.82,30.88-30.88,30.88-7.21,0-13.84-2.47-19.09-6.62,7.17-5.65,11.77-14.42,11.77-24.26s-4.6-18.61-11.77-24.27c5.25-4.14,11.88-6.61,19.09-6.61,17.06,0,30.88,13.82,30.88,30.88Z"/></svg>