<?xml version="1.0" encoding="UTF-8"?><svg id="Layer_1" xmlns="http://www.w3.org/2000/svg" viewBox="0 0 250 81.12"><defs><style>.cls-1{fill:#5334fe;}.cls-1,.cls-2{stroke-width:0px;}.cls-2{fill:#ed5453;}</style></defs><g id="IVwb09"><path class="cls-2" d="m249.99,31.54c.03-1.73-.05-3.43-.26-5.08.09.99.14,2,.14,3.02,0,3.62-.59,7.06-1.71,10.24,1.02-2.73,1.78-5.86,1.83-8.18Z"/></g><path class="cls-1" d="m0,29.14C0,12.62,12.39,0,29.37,0c9.52,0,17.21,4.13,22.03,10.44.68.8.46,1.84-.23,2.53l-8.84,8.48c-.8.8-2.29.92-3.09,0-2.87-2.63-5.62-3.78-8.95-3.78-7.58,0-11.82,5.28-11.82,11.47s4.24,12.16,12.16,12.16c3.09,0,5.85-1.15,8.72-3.91.8-.79,2.3-.68,3.1.12l8.83,8.49c.69.68.92,1.72.23,2.52-4.82,6.31-12.51,10.44-21.57,10.44C12.62,58.97,0,46.01,0,29.14Z"/><path class="cls-1" d="m55.79,29.48c0-16.52,12.5-29.48,29.71-29.48s29.61,12.97,29.61,29.48-12.51,29.48-29.61,29.48-29.71-12.96-29.71-29.48Zm29.71,11.82c6.08,0,11.14-4.36,11.14-11.82s-5.05-11.82-11.14-11.82-11.24,4.36-11.24,11.82,5.04,11.82,11.24,11.82Z"/><path class="cls-2" d="m128.33,74.11c-1.26-.79-1.26-2.52-.69-3.66l4.02-7.81c.69-1.26,1.83-1.83,3.33-1.03,4.93,2.63,9.75,4.02,14.34,4.02,6.54,0,13.77-2.76,13.77-11.59v-4.47c-3.33,4.13-8.49,6.66-15.72,6.66-15.71,0-26.04-11.59-26.04-28.11S131.66,0,147.37,0c7.58,0,12.51,2.41,15.84,6.65l.35-3.44c0-1.04.8-1.84,1.84-1.84h14.22c1.04,0,1.84.8,1.84,1.84v50.82c0,21.23-16.64,27.08-30.18,27.08-8.6,0-16.86-2.3-22.94-7.01Zm22.94-35.11c6.43,0,11.01-4.24,11.01-11.01s-4.59-10.78-11.01-10.78-11.13,4.24-11.13,10.9,4.7,10.89,11.13,10.89Z"/><path class="cls-2" d="m249.74,26.46v-.02c-1.59-12.6-10.2-22.19-22.34-25.31-11.45-2.92-23.62,1.51-30.9,11.26-7.05,9.5-7.71,22.26-1.28,32.82.62,1.01,1.29,2.12,2.01,3.3,5.27,8.57,13.16,21.14,18.29,29.27,2.33,3.68,7.69,3.63,9.98-.07,6.32-10.24,12.47-20.21,18.5-30.2.83-1.37,1.64-2.75,2.47-4.12.4-.67.79-1.47,1.16-2.33.13-.33.28-.64.4-.97.05-.12.09-.24.14-.37,1.12-3.18,1.71-6.62,1.71-10.24,0-1.02-.05-2.04-.14-3.02Zm-40.71,3.02c0-7.46,5.05-11.82,11.24-11.82s11.13,4.36,11.13,11.82-5.05,11.82-11.13,11.82-11.24-4.36-11.24-11.82Z"/></svg>